<?xml version="1.0" encoding="utf-8"?>
<!-- Generator: Adobe Illustrator 19.1.0, SVG Export Plug-In . SVG Version: 6.00 Build 0)  -->
<svg version="1.1" id="Layer_1" xmlns="http://www.w3.org/2000/svg" xmlns:xlink="http://www.w3.org/1999/xlink" x="0px" y="0px"
	 viewBox="0 0 72 72" enable-background="new 0 0 72 72" xml:space="preserve">
<path fill="#FFFFFF" d="M0,0v72h72V0H0z M36,58.397C23.65,58.397,13.603,48.35,13.603,36v-0.734H8.66l9.33-9.197l9.33,9.197h-4.943
	V36c0,7.512,6.111,13.623,13.623,13.623c3.741,0,7.229-1.486,9.823-4.184l6.326,6.081C47.885,55.954,42.15,58.397,36,58.397z
	 M54.01,45.931l-9.33-9.197h4.943V36c0-7.512-6.111-13.623-13.623-13.623c-3.741,0-7.229,1.486-9.823,4.184l-6.326-6.081
	c4.263-4.435,9.998-6.877,16.148-6.877c12.35,0,22.397,10.047,22.397,22.397v0.734h4.943L54.01,45.931z"/>
</svg>
