<?xml version="1.0" encoding="utf-8"?>
<!-- Generator: Adobe Illustrator 19.1.0, SVG Export Plug-In . SVG Version: 6.00 Build 0)  -->
<svg version="1.1" id="Layer_1" xmlns="http://www.w3.org/2000/svg" xmlns:xlink="http://www.w3.org/1999/xlink" x="0px" y="0px"
	 viewBox="0 0 72 72" enable-background="new 0 0 72 72" xml:space="preserve">
<path fill="#4FB3CF" d="M0,0v72h72V0H0z M35.963,10.885l9.33,9.197h-4.94v10.033c-1.575,1.091-3.039,2.334-4.386,3.721
	c-1.347-1.387-2.813-2.63-4.388-3.721V20.082h-4.946L35.963,10.885z M28.188,47.05c-2.32-3.919-5.719-6.464-10.099-7.576
	l-1.136,4.776l-6.789-11.204l11.105-6.949l-1.15,4.837c4.876,1.213,9.062,3.682,12.341,7.235c-0.355,0.529-0.699,1.07-1.028,1.626
	C30.114,42.027,29.029,44.459,28.188,47.05z M55.047,44.251l-1.14-4.795c-4.417,1.104-7.84,3.662-10.172,7.608
	c-2.212,3.745-3.382,8.604-3.382,14.051h-8.774c0-7.016,1.591-13.418,4.602-18.514c3.538-5.989,8.965-10.029,15.696-11.685
	l-1.146-4.819l11.105,6.949L55.047,44.251z"/>
</svg>
